<svg width="150" height="154" viewBox="0 0 190 154" fill="none" xmlns="http://www.w3.org/2000/svg">
<path d="M33.7131 154H0.758523L50.9716 8.54545H90.6023L140.744 154H107.79L71.3551 41.7841H70.2188L33.7131 154ZM31.6534 96.8267H109.494V120.832H31.6534V96.8267ZM158.269 154V44.9091H188.525V154H158.269ZM173.468 30.8466C168.97 30.8466 165.111 29.3551 161.891 26.3722C158.719 23.3419 157.133 19.7197 157.133 15.5057C157.133 11.339 158.719 7.7642 161.891 4.78125C165.111 1.75094 168.97 0.235788 173.468 0.235788C177.966 0.235788 181.801 1.75094 184.974 4.78125C188.193 7.7642 189.803 11.339 189.803 15.5057C189.803 19.7197 188.193 23.3419 184.974 26.3722C181.801 29.3551 177.966 30.8466 173.468 30.8466Z" fill="url(#paint0_linear_1469_493)"/>
<defs>
<linearGradient id="paint0_linear_1469_493" x1="206.5" y1="-91" x2="206.5" y2="253" gradientUnits="userSpaceOnUse">
<stop stop-color="#253887" stop-opacity="0.5"/>
<stop offset="1" stop-color="white" stop-opacity="0.3"/>
</linearGradient>
</defs>
</svg>
