<svg width="290" height="184" viewBox="0 0 380 164" fill="none" xmlns="http://www.w3.org/2000/svg">

  <!-- First "A" path -->
  <path d="M33.7131 146H0.758523L50.9716 0.54545H90.6023L140.744 146H107.79L71.3551 33.7841H70.2188L33.7131 146ZM31.6534 88.8267H109.494V112.832H31.6534V88.8267Z" fill="url(#paint0_linear_combined)"/>
  
  <!-- Second "pp" paths, translated to the right -->
  <path transform="translate(141, 0)" d="M0.073864 151.909V1.90909H29.9034V20.233H31.2528C32.5786 17.2973 34.4962 14.3144 37.0057 11.2841C39.5625 8.20644 42.8769 5.64962 46.9489 3.61364C51.0682 1.5303 56.1818 0.488637 62.2898 0.488637C70.2443 0.488637 77.5833 2.57197 84.3068 6.73864C91.0303 10.858 96.4044 17.0843 100.429 25.4176C104.454 33.7036 106.466 44.0966 106.466 56.5966C106.466 68.7652 104.501 79.0398 100.571 87.4205C96.6884 95.7538 91.3854 102.075 84.6619 106.384C77.9858 110.645 70.5047 112.776 62.2188 112.776C56.3475 112.776 51.3523 111.805 47.233 109.864C43.161 107.922 39.8229 105.484 37.2188 102.548C34.6146 99.5653 32.6259 96.5587 31.2528 93.5284H30.3295V151.909H0.073864ZM29.6903 56.4545C29.6903 62.9413 30.59 68.5994 32.3892 73.429C34.1884 78.2585 36.7926 82.0227 40.2017 84.7216C43.6108 87.3731 47.7538 88.6989 52.6307 88.6989C57.5549 88.6989 61.7216 87.3494 65.1307 84.6506C68.5398 81.9044 71.1203 78.1165 72.8722 73.2869C74.6714 68.41 75.571 62.7992 75.571 56.4545C75.571 50.1572 74.6951 44.6174 72.9432 39.8352C71.1913 35.053 68.6108 31.3125 65.2017 28.6136C61.7926 25.9148 57.6023 24.5653 52.6307 24.5653C47.7064 24.5653 43.5398 25.8674 40.1307 28.4716C36.7689 31.0758 34.1884 34.7689 32.3892 39.5511C30.59 44.3333 29.6903 49.9678 29.6903 56.4545ZM126.636 151.909V1.90909H156.466V20.233H157.815C159.141 17.2973 161.059 14.3144 163.568 11.2841C166.125 8.20644 169.439 5.64962 173.511 3.61364C177.631 1.5303 182.744 0.488637 188.852 0.488637C196.807 0.488637 204.146 2.57197 210.869 6.73864C217.593 10.858 222.967 17.0843 226.991 25.4176C231.016 33.7036 233.028 44.0966 233.028 56.5966C233.028 68.7652 231.063 79.0398 227.134 87.4205C223.251 95.7538 217.948 102.075 211.224 106.384C204.548 110.645 197.067 112.776 188.781 112.776C182.91 112.776 177.915 111.805 173.795 109.864C169.723 107.922 166.385 105.484 163.781 102.548C161.177 99.5653 159.188 96.5587 157.815 93.5284H156.892V151.909H126.636ZM156.253 56.4545C156.253 62.9413 157.152 68.5994 158.952 73.429C160.751 78.2585 163.355 82.0227 166.764 84.7216C170.173 87.3731 174.316 88.6989 179.193 88.6989C184.117 88.6989 188.284 87.3494 191.693 84.6506C195.102 81.9044 197.683 78.1165 199.435 73.2869C201.234 68.41 202.134 62.7992 202.134 56.4545C202.134 50.1572 201.258 44.6174 199.506 39.8352C197.754 35.053 195.173 31.3125 191.764 28.6136C188.355 25.9148 184.165 24.5653 179.193 24.5653C174.269 24.5653 170.102 25.8674 166.693 28.4716C163.331 31.0758 160.751 34.7689 158.952 39.5511C157.152 44.3333 156.253 49.9678 156.253 56.4545Z" fill="url(#paint1_linear_combined)"/>
  
  <defs>
    <!-- Combined gradient definitions -->
    <linearGradient id="paint0_linear_combined" x1="245.5" y1="-3" x2="245.5" y2="150" gradientUnits="userSpaceOnUse">
      <stop stop-color="#253887" stop-opacity="0.5"/>
      <stop offset="1" stop-color="white" stop-opacity="0.3"/>
    </linearGradient>
    <linearGradient id="paint1_linear_combined" x1="237.5" y1="-38" x2="237.5" y2="115" gradientUnits="userSpaceOnUse">
      <stop stop-color="#253887" stop-opacity="0.5"/>
      <stop offset="1" stop-color="white" stop-opacity="0.3"/>
    </linearGradient>
  </defs>
</svg>