<svg width="20" height="21" viewBox="0 0 20 21" fill="none" xmlns="http://www.w3.org/2000/svg">
<path d="M9.99901 18.833C5.39701 18.833 1.66602 15.102 1.66602 10.5C1.66602 5.89799 5.39701 2.16699 9.99901 2.16699C14.602 2.16699 18.333 5.89799 18.333 10.5C18.333 15.102 14.602 18.833 9.99901 18.833ZM9.99901 18C14.141 18 17.499 14.642 17.499 10.5C17.499 6.35799 14.141 2.99999 9.99901 2.99999C5.85701 2.99999 2.49902 6.35799 2.49902 10.5C2.49902 14.642 5.85701 18 9.99901 18ZM12.621 8.12199C12.784 7.95899 13.048 7.95899 13.211 8.12199C13.373 8.28499 13.373 8.54899 13.211 8.71099L9.04402 12.878C8.88102 13.041 8.61702 13.041 8.45502 12.878L6.78802 11.211C6.62502 11.049 6.62502 10.785 6.78802 10.622C6.95102 10.459 7.21502 10.459 7.37702 10.622L8.74902 11.994L12.621 8.12199Z" fill="white"/>
</svg>
