<svg width="21" height="21" viewBox="0 0 21 21" fill="none" xmlns="http://www.w3.org/2000/svg">
<path d="M6.01667 9.76169C7.21667 12.12 9.15 14.045 11.5083 15.2534L13.3417 13.42C13.5667 13.195 13.9 13.12 14.1917 13.22C15.125 13.5284 16.1333 13.695 17.1667 13.695C17.625 13.695 18 14.07 18 14.5284V17.4367C18 17.895 17.625 18.27 17.1667 18.27C9.34167 18.27 3 11.9284 3 4.10335C3 3.64502 3.375 3.27002 3.83333 3.27002H6.75C7.20833 3.27002 7.58333 3.64502 7.58333 4.10335C7.58333 5.14502 7.75 6.14502 8.05833 7.07835C8.15 7.37002 8.08333 7.69502 7.85 7.92835L6.01667 9.76169Z" fill="#BB94E5"/>
</svg>
