<svg width="20" height="22" viewBox="0 0 20 22" fill="none" xmlns="http://www.w3.org/2000/svg">
<path d="M9.99901 19.793C5.39701 19.793 1.66602 16.062 1.66602 11.46C1.66602 6.85795 5.39701 3.12695 9.99901 3.12695C14.602 3.12695 18.333 6.85795 18.333 11.46C18.333 16.062 14.602 19.793 9.99901 19.793ZM9.99901 18.96C14.141 18.96 17.499 15.602 17.499 11.46C17.499 7.31795 14.141 3.95995 9.99901 3.95995C5.85701 3.95995 2.49902 7.31795 2.49902 11.46C2.49902 15.602 5.85701 18.96 9.99901 18.96ZM12.621 9.08195C12.784 8.91895 13.048 8.91895 13.211 9.08195C13.373 9.24495 13.373 9.50895 13.211 9.67095L9.04402 13.838C8.88102 14.001 8.61702 14.001 8.45502 13.838L6.78802 12.171C6.62502 12.009 6.62502 11.745 6.78802 11.582C6.95102 11.419 7.21502 11.419 7.37702 11.582L8.74902 12.954L12.621 9.08195Z" fill="#BB94E5"/>
</svg>
