<svg width="135" height="31" viewBox="0 0 135 31" fill="none" xmlns="http://www.w3.org/2000/svg">
<g clip-path="url(#clip0_310_612)">
<g clip-path="url(#clip1_310_612)">
<mask id="mask0_310_612" style="mask-type:luminance" maskUnits="userSpaceOnUse" x="0" y="0" width="135" height="31">
<path d="M0.880859 0.803467H134.881V30.8035H0.880859V0.803467Z" fill="white"/>
</mask>
<g mask="url(#mask0_310_612)">
<path d="M131.354 6.55148L134.55 9.70347C134.661 9.7897 134.744 9.90747 134.788 10.0415C134.853 10.8175 134.253 10.8595 133.641 10.9025C133.376 10.9225 133.108 10.9405 132.892 11.0195C131.822 11.3012 130.864 11.9026 130.145 12.7435C129.434 13.5751 129 14.6083 128.905 15.6985C128.835 15.8245 128.731 15.9277 128.604 15.9955C128.467 16.0725 128.309 16.103 128.153 16.0824C127.998 16.0619 127.853 15.9913 127.741 15.8815L126.692 14.8465C126.699 14.9165 126.699 14.9865 126.699 15.0435V15.7265C126.699 15.7695 126.701 15.8105 126.696 15.8525C126.688 15.9038 126.667 15.9521 126.635 15.9925V16.0565C126.635 16.0895 126.639 16.1195 126.643 16.1495C126.65 16.2125 126.659 16.2765 126.635 16.3665C126.612 16.4505 126.61 16.5475 126.607 16.6355C126.606 16.6865 126.604 16.7355 126.599 16.7745C126.591 16.8285 126.591 16.8875 126.587 16.9445C126.584 16.9998 126.571 17.054 126.548 17.1045C126.518 17.1705 126.502 17.242 126.5 17.3145C126.498 17.3475 126.498 17.3805 126.498 17.4145L126.455 17.6325L124.825 25.2455L124.695 25.8155L124.645 26.6455L123.927 30.2405L123.812 30.8035H65.6789L65.3989 30.5295L65.3489 30.7685H59.1289L55.6659 27.3565L55.9959 25.8155H54.0429L52.8289 24.6125C51.314 25.6895 49.4933 26.2518 47.6349 26.2165C45.6393 26.2961 43.6913 25.5944 42.2049 24.2605L40.3159 22.3955L39.9059 24.2675C39.8566 24.5261 39.7945 24.782 39.7199 25.0345L39.6549 25.2665L39.5469 25.6045C39.5382 25.6336 39.5265 25.6618 39.5119 25.6885C39.4038 25.9988 39.2766 26.302 39.1309 26.5965C39.1347 26.6078 39.1347 26.6201 39.1309 26.6315C39.1119 26.6703 39.0902 26.7078 39.0659 26.7435C38.9579 26.9535 38.8379 27.1585 38.7069 27.3565C38.6825 27.3922 38.6607 27.4296 38.6419 27.4685L38.5629 27.5535C38.3872 27.8002 38.1955 28.0351 37.9889 28.2565C37.9328 28.3112 37.8755 28.3645 37.8169 28.4165L37.6369 28.5735L37.4789 28.7205C37.2968 28.8685 37.1072 29.007 36.9109 29.1355C35.4246 29.996 33.7197 30.4043 32.0049 30.3105C29.6349 30.3105 27.7379 29.6355 26.5389 28.4535L23.1629 25.1255C21.8095 25.8743 20.2844 26.2575 18.7379 26.2375C16.7482 26.3008 14.8116 25.5895 13.3359 24.2535L11.4469 22.3885L10.8369 25.2665L10.7149 25.8365H4.35786L0.880859 22.4025L1.06086 21.5725L4.88086 3.59648L4.99586 3.03348H11.3739L11.5399 3.18848V3.03348H54.5159L54.6739 3.18848V3.03348H60.8939L64.3709 6.46748L64.1989 7.29048L64.0119 8.19048H65.8009L66.0809 8.46548C66.8707 8.01281 67.7635 7.77042 68.6739 7.76148C69.3438 7.74863 70.0092 7.87355 70.6289 8.12848C71.2452 8.38115 71.8023 8.75914 72.2649 9.23848L72.1719 9.13348L73.8599 10.8015C74.8869 8.90848 77.1929 7.76148 80.3239 7.76148C82.7519 7.76148 84.5409 8.36648 85.6249 9.46448L86.8469 10.6675L87.2569 8.73248L87.3779 8.16948H93.6059L95.3869 9.92148L95.6389 8.73948L95.7609 8.17648H108.016L108.346 8.50048C109.179 8.01976 110.128 7.7763 111.09 7.79648C111.669 7.77438 112.246 7.87845 112.781 8.10148C113.313 8.32275 113.79 8.65835 114.178 9.08448L114.12 9.01848C114.085 8.97848 114.051 8.93848 114.014 8.90248L114.638 9.51348C115.185 8.96052 115.838 8.52408 116.558 8.23048C117.282 7.93478 118.058 7.7872 118.84 7.79648C119.256 7.77148 119.671 7.80648 120.073 7.89848L119.393 7.22748C119.301 7.13097 119.239 7.01024 119.213 6.87949C119.188 6.74874 119.2 6.61342 119.249 6.48948C119.301 6.36535 119.386 6.25801 119.495 6.17944C119.604 6.10087 119.733 6.05414 119.867 6.04448H120.413C120.56 6.03148 120.707 6.01048 120.851 5.98148C121.612 5.82571 122.33 5.50483 122.954 5.04148C123.573 4.58194 124.082 3.98985 124.443 3.30848C124.475 3.25548 124.503 3.20148 124.529 3.14648V3.11148C124.775 2.59122 124.926 2.03103 124.975 1.45748C124.988 1.27871 125.069 1.11179 125.202 0.991475C125.336 0.869665 125.511 0.802597 125.693 0.803475H125.75C125.858 0.813827 125.963 0.8483 126.056 0.904364C126.149 0.960429 126.229 1.03666 126.289 1.12748C126.806 1.61948 129.679 4.48348 129.679 4.48348C129.919 4.73548 129.901 5.06348 129.883 5.39348C129.871 5.59848 129.86 5.80448 129.909 5.99548C130.165 6.04019 130.425 6.0636 130.685 6.06548C130.834 6.06872 130.978 6.11759 131.098 6.20548C131.218 6.29148 131.307 6.41248 131.353 6.55148H131.354Z" fill="#95928E"/>
<path d="M33.7578 8.8665H38.2978L35.7548 20.6795C35.2878 22.9165 34.3968 24.1975 33.0468 25.1045C31.6757 25.8823 30.1097 26.2489 28.5358 26.1605C25.5328 26.1605 22.6528 24.9285 22.3658 21.9385H26.9338C27.0778 22.6425 27.7388 23.0435 28.7438 23.0435C30.1018 23.0435 30.7268 22.2415 31.0068 20.9815L31.2798 19.6805H31.1798C30.7765 20.1131 30.2902 20.46 29.7498 20.7005C29.2066 20.9428 28.6205 21.0744 28.0258 21.0875C25.3828 21.0875 23.2858 19.0255 23.3278 16.0075C23.3858 12.4895 25.7278 8.4935 29.6568 8.4935C30.4001 8.44407 31.1423 8.60451 31.7988 8.9565C32.4528 9.3085 32.9908 9.8365 33.3488 10.4775H33.4278L33.7578 8.8665ZM29.8578 17.7875C31.6028 17.7875 32.5728 15.8175 32.6018 14.1215C32.6018 12.9895 32.1488 11.8285 30.8118 11.8285C28.9878 11.8285 28.0618 13.8195 28.0328 15.5285C28.0328 16.6835 28.4858 17.7885 29.8218 17.7885M80.8218 18.1675C80.8218 18.9205 80.1598 19.2225 79.2918 19.2225C77.8548 19.2225 77.3738 18.5195 77.3658 17.5345H72.8478C72.7688 21.2065 76.1168 22.1145 79.0908 22.1145C82.8898 22.1145 85.3538 20.5035 85.4048 17.2885C85.4048 14.7195 83.1698 13.9385 80.9728 13.4395C79.2838 13.0595 78.5448 12.7855 78.5508 12.1595C78.5588 11.5325 79.3128 11.2795 80.0528 11.2795C80.9798 11.2795 81.6108 11.6035 81.6758 12.4335H86.0658C86.0148 9.3655 83.1918 8.4655 80.3188 8.4655C76.8278 8.4655 74.1048 10.0205 74.0618 12.9615C74.0618 15.2755 75.6568 16.1275 78.0618 16.7315C79.6068 17.1335 80.8348 17.2595 80.8218 18.1675ZM114.388 10.7735H114.309C114.111 10.0768 113.679 9.46944 113.086 9.0535C112.487 8.63305 111.764 8.42598 111.033 8.4655C109.08 8.4655 107.887 9.4155 106.76 10.8505H106.681L107.097 8.8665H102.528L99.7908 21.6855H104.569L106.005 14.7695C106.335 13.2635 107.119 12.2085 108.304 12.2085C109.489 12.2085 109.647 13.1375 109.403 14.2695L107.822 21.6855H112.599L114.036 14.7695C114.366 13.1655 115.149 12.2085 116.334 12.2085C117.519 12.2085 117.678 13.0885 117.434 14.2695L115.853 21.6855H120.63L122.34 14.0655C123.058 10.8505 121.959 8.4375 118.806 8.4375C117.93 8.43331 117.067 8.64488 116.293 9.0535C115.521 9.4615 114.866 10.0535 114.388 10.7735ZM1.75784 21.6855H6.69084L10.5058 3.7095H5.57884L1.75784 21.6855ZM16.6108 8.4865C19.9438 8.4865 23.1258 10.2735 23.0758 14.3185C23.0328 18.7445 19.9578 22.0585 15.2608 22.0585C12.0278 22.0585 8.79584 20.2985 8.85284 16.2745C8.93284 11.9545 11.9628 8.4865 16.6108 8.4865ZM15.3968 18.9205C17.5018 18.9205 18.2698 15.9305 18.2698 14.1705C18.2698 12.9115 17.8748 11.6805 16.4888 11.6805C14.4058 11.6805 13.6948 14.8465 13.6948 16.4785C13.6948 17.7885 14.0678 18.9205 15.4248 18.9205M12.1508 3.7095L11.4328 7.3035H52.8728L53.5898 3.7085L12.1508 3.7095ZM45.4808 8.4865C48.8138 8.4865 51.9958 10.2735 51.9458 14.3185C51.9018 18.7445 48.8208 22.0585 44.1228 22.0585C40.8908 22.0585 37.6578 20.2985 37.7228 16.2745C37.8228 11.9545 40.8548 8.4865 45.4808 8.4865ZM44.2878 18.9205C46.3928 18.9205 47.1618 15.9305 47.1618 14.1705C47.1618 12.9115 46.7588 11.6805 45.3728 11.6805C43.2968 11.6805 42.5788 14.8465 42.5788 16.4785C42.5788 17.7885 42.9518 18.9205 44.3168 18.9205M55.2858 3.7095L54.5668 7.3035H59.3368L60.0548 3.7085H55.2848L55.2858 3.7095ZM51.4638 21.6855H56.2408L58.9778 8.8655H54.1708L51.4638 21.6855ZM66.7068 22.1145C65.9475 22.1675 65.1881 22.0119 64.5108 21.6645C63.8389 21.3208 63.2759 20.797 62.8848 20.1515H62.8058L61.3698 26.6385H56.5348L60.4148 8.8665H64.9538L64.5938 10.5765C65.0709 9.94217 65.6852 9.42392 66.3908 9.0605C67.1009 8.69455 67.8835 8.49129 68.6818 8.4655C71.5548 8.4655 73.2428 10.8785 73.1928 14.0165C73.1278 17.9635 71.0378 22.1145 66.6778 22.1145H66.7068ZM66.5198 12.0955C64.6738 12.0955 63.5388 14.4105 63.5098 16.1905C63.5098 17.4285 63.9558 18.8075 65.4708 18.8075C67.4468 18.8075 68.2578 16.2475 68.2798 14.5375C68.2798 13.3765 67.9348 12.0955 66.5198 12.0955ZM94.1388 19.6655H94.2178L93.8008 21.6995H98.3408L101.078 8.8795H96.3078L94.7848 16.0425C94.4768 17.5275 93.5428 18.3085 92.3648 18.3085C91.1868 18.3085 90.9278 17.2245 91.1648 16.0925L92.7088 8.8805H87.9388L86.2508 16.7955C85.5328 20.2425 87.1708 22.1005 89.9148 22.1005C90.7749 22.0928 91.6184 21.8623 92.3628 21.4315C93.101 21.0046 93.7136 20.3906 94.1388 19.6515V19.6665V19.6655ZM119.761 26.7015L120.479 23.1065H63.8338L63.1148 26.7015H119.761Z" fill="white"/>
<path d="M124.896 12.3834C124.826 12.3779 124.759 12.3521 124.703 12.3091C124.647 12.2661 124.605 12.2079 124.582 12.1414C124.567 12.0974 124.562 12.0507 124.566 12.0044C124.626 11.3773 124.55 10.7445 124.343 10.1494C124.135 9.55157 123.801 9.00505 123.365 8.54644C122.925 8.08395 122.394 7.71875 121.805 7.47444C121.211 7.22871 120.574 7.10852 119.932 7.12144C119.837 7.12146 119.746 7.08449 119.679 7.01844C119.645 6.98605 119.619 6.94735 119.601 6.9046C119.583 6.86185 119.573 6.8159 119.573 6.76944C119.573 6.72298 119.583 6.67703 119.601 6.63428C119.619 6.59153 119.645 6.55283 119.679 6.52044C119.746 6.45438 119.837 6.41741 119.932 6.41744C120.105 6.42844 120.278 6.42844 120.45 6.41744C121.72 6.28705 122.907 5.7235 123.811 4.82144C124.705 3.92959 125.254 2.75044 125.363 1.49244C125.371 1.40396 125.412 1.32174 125.478 1.26244C125.545 1.20216 125.632 1.169 125.722 1.16944C125.816 1.17684 125.905 1.22056 125.968 1.29144C125.998 1.32673 126.021 1.36769 126.036 1.41196C126.051 1.45624 126.056 1.50295 126.053 1.54944C125.993 2.17555 126.069 2.8072 126.275 3.40144C126.482 3.99744 126.814 4.54344 127.25 5.00344C127.688 5.46444 128.218 5.83044 128.809 6.07644C129.401 6.32253 130.038 6.4434 130.679 6.43144C130.773 6.43144 130.865 6.46844 130.933 6.53444C130.983 6.58357 131.018 6.64685 131.032 6.71598C131.046 6.78511 131.039 6.85686 131.011 6.92184C130.984 6.98681 130.937 7.04198 130.878 7.08009C130.819 7.11821 130.749 7.1375 130.679 7.13544C129.319 7.15531 128.013 7.6693 127.005 8.58144C126.008 9.48205 125.384 10.7231 125.256 12.0604C125.248 12.1489 125.207 12.2311 125.141 12.2904C125.074 12.3511 124.986 12.3846 124.896 12.3844V12.3834Z" fill="white"/>
</g>
</g>
</g>
<defs>
<clipPath id="clip0_310_612">
<rect width="134" height="30" fill="white" transform="translate(0.880859 0.803467)"/>
</clipPath>
<clipPath id="clip1_310_612">
<rect width="134" height="30" fill="white" transform="translate(0.880859 0.803467)"/>
</clipPath>
</defs>
</svg>
