<svg width="167" height="31" viewBox="0 0 167 31" fill="none" xmlns="http://www.w3.org/2000/svg">
<g clip-path="url(#clip0_310_570)">
<g clip-path="url(#clip1_310_570)">
<mask id="mask0_310_570" style="mask-type:luminance" maskUnits="userSpaceOnUse" x="0" y="0" width="167" height="31">
<path d="M0.880859 0.803467H166.881V30.8035H0.880859V0.803467Z" fill="white"/>
</mask>
<g mask="url(#mask0_310_570)">
<path d="M94.0508 22.9465H97.6008V9.75549H94.0508V22.9465ZM94.0508 7.69749H97.6008V4.56049H94.0508V7.69749ZM99.8888 27.2665H103.44V21.4535H103.492C104.249 22.5855 105.476 23.3315 107.355 23.3315C110.802 23.3315 113.152 20.6315 113.152 16.3615C113.152 12.2485 110.88 9.39349 107.33 9.39349C105.502 9.39349 104.249 10.2425 103.387 11.3995H103.309V9.75449H99.8888V27.2665ZM106.599 20.4265C104.484 20.4265 103.362 18.8575 103.362 16.4665C103.362 14.1005 104.249 12.2235 106.468 12.2235C108.661 12.2235 109.549 13.9715 109.549 16.4665C109.549 18.9605 108.4 20.4265 106.599 20.4265ZM120.234 23.3325C123.576 23.3325 125.874 21.7375 125.874 19.0895C125.874 16.0035 123.394 15.3865 121.148 14.9235C119.242 14.5375 117.467 14.4345 117.467 13.3035C117.467 12.3525 118.381 11.8375 119.764 11.8375C121.279 11.8375 122.193 12.3515 122.349 13.7665H125.56C125.3 11.1175 123.341 9.39449 119.817 9.39449C116.762 9.39449 114.36 10.7575 114.36 13.6125C114.36 16.4925 116.71 17.1345 119.112 17.5975C120.939 17.9575 122.636 18.0865 122.636 19.3465C122.636 20.2715 121.749 20.8635 120.182 20.8635C118.589 20.8635 117.493 20.1945 117.258 18.6775H113.969C114.178 21.4805 116.345 23.3325 120.234 23.3325ZM139.354 22.9465V9.75349H135.803V17.3655C135.803 19.1135 134.785 20.3475 133.114 20.3475C131.6 20.3475 130.896 19.4995 130.896 17.9575V9.75349H127.371V18.5475C127.371 21.4275 129.041 23.3055 132.018 23.3055C133.898 23.3055 134.942 22.6105 135.856 21.4025H135.934V22.9455L139.354 22.9465ZM141.651 22.9465H145.201V15.2835C145.201 13.5345 146.168 12.4035 147.604 12.4035C148.909 12.4035 149.666 13.1745 149.666 14.6665V22.9465H153.216V15.2835C153.216 13.5345 154.13 12.4035 155.618 12.4035C156.924 12.4035 157.681 13.1745 157.681 14.6665V22.9465H161.232V14.0735C161.232 11.1935 159.639 9.39349 156.819 9.39349C155.122 9.39349 153.712 10.2685 152.798 11.7085H152.747C152.094 10.3195 150.736 9.39349 149.039 9.39349C147.186 9.39349 145.88 10.3195 145.149 11.5285H145.071V9.75349H141.651V22.9465ZM1.50781 22.9465H5.05881V4.56049H1.50881V22.9465H1.50781ZM13.7408 23.3325C17.8918 23.3325 20.7378 20.2975 20.7378 16.3625C20.7378 12.4295 17.8918 9.39449 13.7408 9.39449C9.58981 9.39449 6.74381 12.4295 6.74381 16.3635C6.74381 20.2975 9.58981 23.3325 13.7408 23.3325ZM13.7408 20.6575C11.5478 20.6575 10.3468 18.9345 10.3468 16.3635C10.3468 13.7915 11.5478 12.0435 13.7408 12.0435C15.9078 12.0435 17.1348 13.7915 17.1348 16.3635C17.1348 18.9345 15.9078 20.6575 13.7408 20.6575ZM28.2878 27.4465C30.2728 27.4465 31.9958 26.9835 33.1178 25.9545C34.1098 25.0545 34.7108 23.7945 34.7108 21.9435V9.75349H31.2908V11.1425H31.2388C30.4288 10.0365 29.2018 9.39349 27.5308 9.39349C24.1368 9.39349 21.7358 11.9135 21.7358 15.8485C21.7358 19.8335 24.6598 22.1485 27.6358 22.1485C29.3328 22.1485 30.3508 21.4795 31.1338 20.6055H31.2118V22.0455C31.2118 23.8455 30.2468 24.7965 28.2358 24.7965C26.5908 24.7965 25.8338 24.1535 25.5468 23.3315H22.0228C22.3878 25.9015 24.6328 27.4465 28.2878 27.4465ZM28.2358 19.3465C26.4088 19.3465 25.2078 18.0345 25.2078 15.7975C25.2078 13.5865 26.4078 12.1975 28.2098 12.1975C30.3508 12.1975 31.3948 13.8435 31.3948 15.7725C31.3948 17.7265 30.4818 19.3465 28.2358 19.3465ZM43.3408 23.3325C47.4918 23.3325 50.3378 20.2975 50.3378 16.3625C50.3378 12.4295 47.4918 9.39449 43.3408 9.39449C39.1908 9.39449 36.3438 12.4295 36.3438 16.3635C36.3438 20.2975 39.1898 23.3325 43.3408 23.3325ZM43.3408 20.6575C41.1478 20.6575 39.9468 18.9345 39.9468 16.3635C39.9468 13.7915 41.1478 12.0435 43.3408 12.0435C45.5078 12.0435 46.7348 13.7915 46.7348 16.3635C46.7348 18.9345 45.5078 20.6575 43.3408 20.6575ZM162.522 7.58949C162.523 7.44766 162.552 7.30742 162.607 7.17679C162.662 7.04616 162.743 6.92769 162.844 6.82815C162.945 6.7286 163.064 6.64993 163.196 6.59663C163.327 6.54332 163.468 6.51643 163.61 6.51749H165.785C166.386 6.51749 166.873 6.99749 166.873 7.58949C166.87 7.87575 166.755 8.14936 166.55 8.35018C166.346 8.55101 166.071 8.66262 165.785 8.66049H163.61C163.324 8.66262 163.048 8.55101 162.844 8.35018C162.64 8.14936 162.524 7.87575 162.522 7.58949Z" fill="#95928E"/>
<path fill-rule="evenodd" clip-rule="evenodd" d="M71.8706 0.803467C80.2806 0.803467 87.1006 7.51947 87.1006 15.8035C87.1006 24.0875 80.2806 30.8035 71.8706 30.8035C63.4606 30.8035 56.6406 24.0875 56.6406 15.8035C56.6406 7.51947 63.4606 0.803467 71.8706 0.803467ZM71.3206 1.92547C69.5826 2.16647 67.9286 3.54147 66.6446 5.84147C66.2539 6.54759 65.9188 7.28316 65.6426 8.04147C67.5025 7.58965 69.4069 7.34582 71.3206 7.31447V1.92547ZM64.3556 8.40147C64.7196 7.27547 65.1656 6.23947 65.6796 5.31847C66.3166 4.17847 67.0716 3.19447 67.9226 2.43847C63.2936 3.76247 59.6456 7.35647 58.3006 11.9155C59.0686 11.0765 60.0686 10.3325 61.2256 9.70547C62.2249 9.17181 63.273 8.73515 64.3556 8.40147ZM63.9896 9.66947C63.5316 11.4993 63.2843 13.3755 63.2526 15.2615H57.7806C58.0256 13.5495 59.4206 11.9215 61.7566 10.6555C62.4747 10.2703 63.2212 9.94071 63.9896 9.66947ZM64.3536 15.2615C64.3986 13.0975 64.7156 11.0665 65.2386 9.27147C67.0606 8.75547 69.1236 8.44447 71.3206 8.39947V10.7415C70.9084 11.7706 70.2879 12.7033 69.498 13.4811C68.7081 14.259 67.7659 14.8651 66.7306 15.2615H64.3536ZM63.2526 16.3455H57.7806C58.0256 18.0565 59.4206 19.6855 61.7566 20.9515C62.4336 21.3185 63.1816 21.6495 63.9896 21.9375C63.5316 20.1077 63.2843 18.2315 63.2526 16.3455ZM65.2386 22.3355C64.7156 20.5415 64.3986 18.5095 64.3536 16.3455H66.7306C67.7659 16.7418 68.7081 17.348 69.498 18.1258C70.2879 18.9036 70.9084 19.8364 71.3206 20.8655V23.2075C69.1236 23.1625 67.0606 22.8515 65.2386 22.3355ZM64.3556 23.2055C63.273 22.8718 62.2249 22.4352 61.2256 21.9015C60.0686 21.2745 59.0686 20.5305 58.3006 19.6915C59.6456 24.2515 63.2936 27.8445 67.9226 29.1685C67.0726 28.4125 66.3166 27.4285 65.6796 26.2885C65.1388 25.3064 64.6953 24.2739 64.3556 23.2055ZM71.3206 29.6815C69.5826 29.4405 67.9286 28.0655 66.6446 25.7655C66.2539 25.0593 65.9189 24.3238 65.6426 23.5655C67.3886 23.9975 69.3076 24.2525 71.3206 24.2925V29.6815ZM75.8186 29.1685C76.6696 28.4125 77.4246 27.4285 78.0616 26.2885C78.5756 25.3675 79.0216 24.3315 79.3856 23.2055C80.4682 22.8718 81.5163 22.4351 82.5156 21.9015C83.6726 21.2745 84.6726 20.5305 85.4406 19.6915C84.0956 24.2515 80.4476 27.8445 75.8186 29.1685ZM78.0986 23.5655C77.8056 24.3615 77.4686 25.0985 77.0966 25.7655C75.8126 28.0655 74.1586 29.4405 72.4216 29.6815V24.2915C74.335 24.2603 76.239 24.0168 78.0986 23.5655ZM79.7516 21.9375C80.5596 21.6495 81.3076 21.3175 81.9846 20.9515C84.3206 19.6865 85.7156 18.0565 85.9606 16.3455H80.4896C80.4496 18.3285 80.1896 20.2175 79.7516 21.9375ZM79.3876 16.3455C79.3426 18.5095 79.0266 20.5415 78.5026 22.3355C76.6806 22.8515 74.6176 23.1625 72.4206 23.2075V20.8675C72.8327 19.838 73.4531 18.9049 74.243 18.1267C75.0329 17.3486 75.9752 16.7421 77.0106 16.3455H79.3876ZM80.4896 15.2615H85.9596C85.7156 13.5495 84.3196 11.9215 81.9846 10.6555C81.2666 10.2703 80.52 9.94063 79.7516 9.66947C80.2091 11.4994 80.4567 13.3755 80.4896 15.2615ZM78.5026 9.27147C79.0266 11.0665 79.3426 13.0975 79.3876 15.2615H77.0116C75.9761 14.8649 75.0338 14.2584 74.2439 13.4803C73.4541 12.7021 72.8336 11.7689 72.4216 10.7395V8.39947C74.6176 8.44447 76.6816 8.75547 78.5026 9.27147ZM79.3856 8.40147C80.4682 8.7352 81.5163 9.17186 82.5156 9.70547C83.6726 10.3325 84.6726 11.0765 85.4406 11.9155C84.0956 7.35547 80.4476 3.76247 75.8186 2.43847C76.6696 3.19447 77.4246 4.17847 78.0616 5.31847C78.5756 6.23947 79.0216 7.27547 79.3856 8.40147ZM72.4206 1.92547C74.1586 2.16647 75.8126 3.54147 77.0966 5.84147C77.4696 6.50847 77.8066 7.24547 78.0986 8.04147C76.2387 7.58971 74.3344 7.34588 72.4206 7.31447V1.92547Z" fill="#95928E"/>
</g>
</g>
</g>
<defs>
<clipPath id="clip0_310_570">
<rect width="166" height="30" fill="white" transform="translate(0.880859 0.803467)"/>
</clipPath>
<clipPath id="clip1_310_570">
<rect width="166" height="30" fill="white" transform="translate(0.880859 0.803467)"/>
</clipPath>
</defs>
</svg>
