<svg width="82" height="31" viewBox="0 0 82 31" fill="none" xmlns="http://www.w3.org/2000/svg">
<g clip-path="url(#clip0_310_602)">
<g clip-path="url(#clip1_310_602)">
<mask id="mask0_310_602" style="mask-type:luminance" maskUnits="userSpaceOnUse" x="0" y="0" width="82" height="31">
<path d="M0.880859 0.803467H81.8809V30.8035H0.880859V0.803467Z" fill="white"/>
</mask>
<g mask="url(#mask0_310_602)">
<path d="M38.0137 27.2325H40.1237V19.4965H38.0137V27.2325ZM38.0137 18.2905H40.1237V16.4505H38.0137V18.2905ZM41.4827 29.7655H43.5927V26.3575H43.6227C44.0727 27.0215 44.8027 27.4585 45.9187 27.4585C47.9657 27.4585 49.3617 25.8755 49.3617 23.3715C49.3617 20.9595 48.0117 19.2855 45.9027 19.2855C44.8177 19.2855 44.0727 19.7835 43.5607 20.4615H43.5147V19.4965H41.4827V29.7655ZM45.4687 25.7545C44.2127 25.7545 43.5457 24.8345 43.5457 23.4325C43.5457 22.0445 44.0727 20.9445 45.3917 20.9445C46.6937 20.9445 47.2217 21.9695 47.2217 23.4325C47.2217 24.8945 46.5387 25.7545 45.4687 25.7545ZM53.5707 27.4585C55.5557 27.4585 56.9207 26.5235 56.9207 24.9705C56.9207 23.1605 55.4467 22.7985 54.1127 22.5275C52.9807 22.3015 51.9257 22.2405 51.9257 21.5775C51.9257 21.0195 52.4687 20.7175 53.2907 20.7175C54.1907 20.7175 54.7337 21.0195 54.8267 21.8485H56.7337C56.5787 20.2955 55.4157 19.2855 53.3217 19.2855C51.5067 19.2855 50.0797 20.0855 50.0797 21.7585C50.0797 23.4475 51.4757 23.8245 52.9027 24.0955C53.9887 24.3065 54.9967 24.3825 54.9967 25.1215C54.9967 25.6635 54.4697 26.0115 53.5387 26.0115C52.5927 26.0115 51.9417 25.6185 51.8017 24.7295H49.8477C49.9717 26.3725 51.2597 27.4585 53.5707 27.4585ZM64.9287 27.2325V19.4965H62.8187V23.9595C62.8187 24.9855 62.2147 25.7095 61.2217 25.7095C60.3217 25.7095 59.9037 25.2115 59.9037 24.3065V19.4965H57.8097V24.6535C57.8097 26.3425 58.8017 27.4435 60.5697 27.4435C61.6867 27.4435 62.3077 27.0365 62.8497 26.3275H62.8967V27.2325H64.9287ZM66.2937 27.2325H68.4037V22.7385C68.4037 21.7135 68.9767 21.0495 69.8297 21.0495C70.6057 21.0495 71.0547 21.5025 71.0547 22.3765V27.2325H73.1647V22.7385C73.1647 21.7135 73.7077 21.0495 74.5917 21.0495C75.3667 21.0495 75.8167 21.5025 75.8167 22.3765V27.2325H77.9267V22.0295C77.9267 20.3415 76.9797 19.2855 75.3047 19.2855C74.2967 19.2855 73.4587 19.7985 72.9157 20.6425H72.8857C72.4977 19.8285 71.6907 19.2855 70.6827 19.2855C69.5817 19.2855 68.8057 19.8285 68.3717 20.5375H68.3257V19.4975H66.2937V27.2325ZM38.0457 13.9835H40.1547V3.19946H38.0447L38.0457 13.9835ZM45.3127 14.2085C47.7787 14.2085 49.4687 12.4285 49.4687 10.1215C49.4687 7.81446 47.7787 6.03546 45.3127 6.03546C42.8467 6.03546 41.1557 7.81546 41.1557 10.1215C41.1557 12.4295 42.8457 14.2085 45.3127 14.2085ZM45.3127 12.6405C44.0097 12.6405 43.2957 11.6305 43.2957 10.1215C43.2957 8.61446 44.0097 7.58846 45.3127 7.58846C46.5997 7.58846 47.3287 8.61446 47.3287 10.1215C47.3287 11.6295 46.5997 12.6405 45.3127 12.6405ZM53.9547 16.6215C55.1347 16.6215 56.1577 16.3495 56.8247 15.7465C57.4137 15.2185 57.7707 14.4795 57.7707 13.3945V6.24646H55.7387V7.06046H55.7077C55.2277 6.41246 54.4977 6.03546 53.5047 6.03546C51.4887 6.03546 50.0617 7.51346 50.0617 9.82046C50.0617 12.1575 51.7987 13.5145 53.5677 13.5145C54.5757 13.5145 55.1807 13.1225 55.6457 12.6105H55.6917V13.4545C55.6917 14.5105 55.1187 15.0685 53.9237 15.0685C52.9467 15.0685 52.4967 14.6905 52.3267 14.2085H50.2327C50.4497 15.7165 51.7827 16.6215 53.9547 16.6215ZM53.9247 11.8715C52.8387 11.8715 52.1247 11.1015 52.1247 9.79046C52.1247 8.49346 52.8387 7.67946 53.9087 7.67946C55.1807 7.67946 55.8007 8.64446 55.8007 9.77546C55.8007 10.9215 55.2587 11.8715 53.9247 11.8715ZM62.8977 14.2085C65.3637 14.2085 67.0547 12.4285 67.0547 10.1215C67.0547 7.81446 65.3647 6.03546 62.8977 6.03546C60.4317 6.03546 58.7407 7.81546 58.7407 10.1215C58.7407 12.4295 60.4317 14.2085 62.8977 14.2085ZM62.8977 12.6405C61.5947 12.6405 60.8817 11.6305 60.8817 10.1215C60.8817 8.61446 61.5947 7.58846 62.8977 7.58846C64.1847 7.58846 64.9147 8.61446 64.9147 10.1215C64.9147 11.6295 64.1847 12.6405 62.8977 12.6405ZM68.9037 11.0265H78.0237V9.26346H68.9037V11.0275V11.0265ZM78.6917 18.1825C78.6917 17.8355 78.9817 17.5535 79.3387 17.5535H80.6307C80.9877 17.5535 81.2777 17.8355 81.2777 18.1825C81.2777 18.5295 80.9877 18.8105 80.6307 18.8105H79.3387C79.1696 18.8129 79.0065 18.7481 78.8852 18.6303C78.7639 18.5126 78.6943 18.3515 78.6917 18.1825Z" fill="#95928E"/>
<path fill-rule="evenodd" clip-rule="evenodd" d="M16.7107 0.803467C25.2327 0.803467 32.1407 7.51947 32.1407 15.8035C32.1407 24.0875 25.2327 30.8035 16.7107 30.8035C8.19069 30.8035 1.28369 24.0875 1.28369 15.8035C1.28369 7.51947 8.19169 0.803467 16.7127 0.803467H16.7107ZM16.1537 1.92547C14.3937 2.16647 12.7177 3.54147 11.4167 5.84147C11.0212 6.54703 10.6818 7.28264 10.4017 8.04147C12.2867 7.58956 14.2155 7.34577 16.1537 7.31447V1.92547ZM9.09869 8.40147C9.44277 7.33219 9.89162 6.29951 10.4387 5.31847C11.0847 4.17847 11.8497 3.19447 12.7127 2.43847C8.02269 3.76247 4.32669 7.35647 2.96469 11.9155C3.74269 11.0765 4.75469 10.3325 5.92769 9.70547C6.9407 9.17144 8.00213 8.73481 9.09769 8.40147H9.09869ZM8.72769 9.66947C8.26366 11.4984 8.01299 13.3749 7.98069 15.2615H2.43769C2.68569 13.5495 4.09969 11.9215 6.46469 10.6555C7.19301 10.2701 7.94951 9.94044 8.72769 9.66947ZM9.09569 15.2615C9.14169 13.0975 9.46269 11.0665 9.99269 9.27147C11.8387 8.75547 13.9287 8.44447 16.1537 8.39947V10.7415C15.3237 12.8085 13.6297 14.4545 11.5037 15.2615H9.09569ZM7.98069 16.3455H2.43769C2.68569 18.0565 4.09969 19.6855 6.46469 20.9515C7.15069 21.3185 7.90969 21.6495 8.72769 21.9375C8.26366 20.1086 8.01299 18.2321 7.98069 16.3455ZM9.99269 22.3355C9.46269 20.5415 9.14269 18.5095 9.09569 16.3455H11.5047C13.6297 17.1525 15.3237 18.7985 16.1547 20.8655V23.2075C13.9287 23.1625 11.8387 22.8515 9.99269 22.3355ZM9.09869 23.2055C8.00278 22.8722 6.94101 22.4356 5.92769 21.9015C4.75469 21.2745 3.74269 20.5305 2.96469 19.6915C4.32669 24.2515 8.02269 27.8445 12.7127 29.1685C11.8497 28.4125 11.0847 27.4285 10.4397 26.2885C9.89227 25.3075 9.44309 24.2748 9.09869 23.2055ZM16.1537 29.6815C14.3937 29.4405 12.7177 28.0655 11.4167 25.7655C11.0212 25.0599 10.6818 24.3243 10.4017 23.5655C12.2868 24.0169 14.2156 24.2607 16.1537 24.2925V29.6815ZM20.7107 29.1685C21.5737 28.4125 22.3387 27.4285 22.9837 26.2885C23.5037 25.3675 23.9557 24.3315 24.3247 23.2055C25.4206 22.8722 26.4824 22.4356 27.4957 21.9015C28.6687 21.2745 29.6807 20.5305 30.4587 19.6915C29.0967 24.2515 25.4007 27.8445 20.7107 29.1685ZM23.0207 23.5655C22.741 24.3243 22.4019 25.0599 22.0067 25.7655C20.7057 28.0655 19.0297 29.4405 17.2697 29.6815V24.2915C19.2075 24.2606 21.136 24.0171 23.0207 23.5655ZM24.6957 21.9375C25.5137 21.6495 26.2717 21.3175 26.9577 20.9515C29.3237 19.6865 30.7377 18.0565 30.9857 16.3455H25.4427C25.4104 18.2321 25.1597 20.1086 24.6957 21.9375ZM24.3267 16.3455C24.2807 18.5095 23.9607 20.5415 23.4307 22.3355C21.5847 22.8515 19.4947 23.1625 17.2697 23.2075V20.8675C18.0997 18.7995 19.7927 17.1525 21.9197 16.3455H24.3267ZM25.4427 15.2615H30.9857C30.7377 13.5495 29.3237 11.9215 26.9587 10.6555C26.2304 10.2701 25.4739 9.94044 24.6957 9.66947C25.1397 11.3895 25.4017 13.2785 25.4427 15.2615ZM23.4307 9.27147C23.9607 11.0665 24.2807 13.0975 24.3267 15.2615H21.9207C19.7937 14.4545 18.1007 12.8075 17.2707 10.7395V8.39947C19.4957 8.44447 21.5857 8.75547 23.4307 9.27147ZM24.3247 8.40147C25.4827 8.76047 26.5487 9.19947 27.4957 9.70547C28.6687 10.3325 29.6807 11.0765 30.4587 11.9155C29.0967 7.35547 25.4007 3.76247 20.7107 2.43847C21.5737 3.19447 22.3387 4.17847 22.9837 5.31847C23.5037 6.23947 23.9557 7.27547 24.3247 8.40147ZM17.2707 1.92547C19.0307 2.16647 20.7067 3.54147 22.0077 5.84147C22.3847 6.50847 22.7257 7.24547 23.0217 8.04147C21.137 7.58963 19.2085 7.34584 17.2707 7.31447V1.92547Z" fill="#95928E"/>
</g>
</g>
</g>
<defs>
<clipPath id="clip0_310_602">
<rect width="81" height="30" fill="white" transform="translate(0.880859 0.803467)"/>
</clipPath>
<clipPath id="clip1_310_602">
<rect width="81" height="30" fill="white" transform="translate(0.880859 0.803467)"/>
</clipPath>
</defs>
</svg>
