<svg width="61" height="23" viewBox="0 0 61 23" fill="none" xmlns="http://www.w3.org/2000/svg">
<g clip-path="url(#clip0_310_590)">
<g clip-path="url(#clip1_310_590)">
<mask id="mask0_310_590" style="mask-type:luminance" maskUnits="userSpaceOnUse" x="0" y="0" width="61" height="23">
<path d="M0.880859 0.803467H60.8809V22.8035H0.880859V0.803467Z" fill="white"/>
</mask>
<g mask="url(#mask0_310_590)">
<path d="M15.1229 0.803467C12.7809 0.803467 10.5329 1.69047 8.87586 3.27047L3.46886 8.42547C1.81086 10.0055 0.880859 12.1475 0.880859 14.3805C0.880859 19.0335 4.83586 22.8035 9.71586 22.8035C12.0589 22.8035 14.3059 21.9165 15.9629 20.3365L19.7029 16.7705L30.6009 6.38147C31.4078 5.62087 32.476 5.19917 33.5849 5.20347C35.4579 5.20347 37.0469 6.36747 37.5969 7.97847L41.0369 4.69947C39.4669 2.35647 36.7169 0.803467 33.5849 0.803467C31.2409 0.803467 28.9949 1.69047 27.3369 3.27047L12.7009 17.2255C11.8936 17.9862 10.8251 18.4079 9.71586 18.4035C7.38586 18.4035 5.49586 16.6035 5.49586 14.3805C5.49822 13.8474 5.60901 13.3203 5.82149 12.8314C6.03398 12.3425 6.34372 11.9019 6.73186 11.5365L12.1389 6.38147C12.9458 5.62087 14.014 5.19917 15.1229 5.20347C16.9969 5.20347 18.5849 6.36747 19.1359 7.97847L22.5759 4.69947C21.0049 2.35647 18.2549 0.803467 15.1229 0.803467Z" fill="#95928E"/>
<path d="M31.1611 17.2255C30.3541 17.986 29.286 18.4077 28.1771 18.4035C26.3041 18.4035 24.7161 17.2395 24.1651 15.6295L20.7251 18.9075C22.2951 21.2505 25.0451 22.8035 28.1771 22.8035C30.5211 22.8035 32.7671 21.9165 34.4251 20.3365L49.0621 6.38147C49.8688 5.6211 50.9366 5.19943 52.0451 5.20347C54.3751 5.20347 56.2651 7.00347 56.2651 9.22647C56.2627 9.75956 56.1519 10.2866 55.9395 10.7755C55.727 11.2645 55.4172 11.705 55.0291 12.0705L49.6221 17.2255C48.8152 17.9861 47.747 18.4078 46.6381 18.4035C44.7641 18.4035 43.1761 17.2395 42.6251 15.6285L39.1861 18.9075C40.7561 21.2505 43.5061 22.8035 46.6381 22.8035C48.9811 22.8035 51.2281 21.9165 52.8851 20.3365L58.2921 15.1815C59.9511 13.6015 60.8811 11.4595 60.8811 9.22647C60.8811 4.57347 56.9251 0.803467 52.0461 0.803467C49.7031 0.803467 47.4561 1.69047 45.7991 3.27047L31.1611 17.2255Z" fill="#95928E"/>
</g>
</g>
</g>
<defs>
<clipPath id="clip0_310_590">
<rect width="60" height="22" fill="white" transform="translate(0.880859 0.803467)"/>
</clipPath>
<clipPath id="clip1_310_590">
<rect width="60" height="22" fill="white" transform="translate(0.880859 0.803467)"/>
</clipPath>
</defs>
</svg>
